<svg width="14" height="14" viewBox="0 0 14 14" fill="none" xmlns="http://www.w3.org/2000/svg">
<path d="M11.8502 10.523C12.5326 9.58619 12.929 8.47175 12.9915 7.31445C13.0062 7.04448 12.6855 6.90383 12.4562 7.04715C11.6891 7.5265 10.7822 7.73176 9.88349 7.62942C8.98475 7.52708 8.14723 7.12319 7.50762 6.48366C6.86801 5.84413 6.46407 5.00673 6.36171 4.10811C6.25936 3.20949 6.46465 2.30271 6.94406 1.53576C7.0874 1.30712 6.94606 0.98582 6.67606 1.00048C5.51861 1.06308 4.40407 1.45956 3.46718 2.14198C2.53028 2.82441 1.81113 3.76357 1.39667 4.84594C0.982208 5.9283 0.890173 7.10753 1.13169 8.24109C1.37321 9.37464 1.93794 10.414 2.75762 11.2335C3.5773 12.0529 4.61683 12.6175 5.75055 12.8589C6.88428 13.1002 8.06365 13.0081 9.14612 12.5936C10.2286 12.179 11.1678 11.4599 11.8502 10.523Z" stroke="#7A2840" stroke-width="2" stroke-linecap="round"/>
</svg>
